<?xml version="1.0" encoding="UTF-8" standalone="no"?>
<svg
   xmlns:dc="http://purl.org/dc/elements/1.1/"
   xmlns:cc="http://creativecommons.org/ns#"
   xmlns:rdf="http://www.w3.org/1999/02/22-rdf-syntax-ns#"
   xmlns:svg="http://www.w3.org/2000/svg"
   xmlns="http://www.w3.org/2000/svg"
   xmlns:sodipodi="http://sodipodi.sourceforge.net/DTD/sodipodi-0.dtd"
   xmlns:inkscape="http://www.inkscape.org/namespaces/inkscape"
   inkscape:export-ydpi="154.52"
   inkscape:export-xdpi="154.52"
   inkscape:export-filename="/Users/schule/Monaco.png"
   inkscape:output_extension="org.inkscape.output.svg.inkscape"
   version="1.0"
   sodipodi:docname="Monaco.svg"
   inkscape:version="1.0beta2 (2b71d25, 2019-12-03)"
   sodipodi:version="0.32"
   id="svg1901"
   height="800"
   width="767.34692">
  <defs
     id="defs1903" />
  <sodipodi:namedview
     inkscape:window-maximized="0"
     showgrid="false"
     inkscape:document-rotation="0"
     inkscape:window-y="23"
     inkscape:window-x="-4"
     inkscape:window-height="995"
     inkscape:window-width="1909"
     gridtolerance="10000"
     inkscape:current-layer="layer2"
     inkscape:document-units="px"
     inkscape:cy="409.51719"
     inkscape:cx="427.4752"
     inkscape:zoom="0.94522539"
     inkscape:pageshadow="2"
     inkscape:pageopacity="0.0"
     borderopacity="1.0"
     bordercolor="#666666"
     pagecolor="#ffffff"
     id="base" />
  <metadata
     id="metadata1906">
    <rdf:RDF>
      <cc:Work
         rdf:about="">
        <dc:format>image/svg+xml</dc:format>
        <dc:type
           rdf:resource="http://purl.org/dc/dcmitype/StillImage" />
        <dc:title></dc:title>
      </cc:Work>
    </rdf:RDF>
  </metadata>
  <g
     inkscape:label="SVG"
     id="layer2"
     inkscape:groupmode="layer">
    <rect
       y="-4.2317948"
       x="-1.0579487"
       height="809.33075"
       width="774.41852"
       id="rect1426"
       style="fill:#f0eee9;fill-opacity:1;stroke:none;stroke-width:50;stroke-miterlimit:4;stroke-dasharray:none;stroke-opacity:1" />
    <path
       inkscape:connector-curvature="0"
       sodipodi:nodetypes="ccc"
       id="path9016"
       d="m 675.42359,192.61839 c 0,0 -9.51683,40.56932 -54.79017,106.14987 0,0 -33.87387,45.56853 -116.54227,67.34457"
       style="opacity:1;fill:none;fill-rule:evenodd;stroke:#646464;stroke-width:50;stroke-linecap:butt;stroke-linejoin:miter;stroke-miterlimit:4;stroke-dasharray:none;stroke-opacity:1" />
    <path
       inkscape:connector-curvature="0"
       sodipodi:nodetypes="cccccccccccccccccccccccccccccccccccccccccccccccccccccccc"
       id="path4167"
       d="m 104.50658,653.97079 c 0,0 -19.541546,-24.40206 -24.672099,-57.88564 0,0 -4.860525,-41.85453 -4.590484,-63.72675 0,0 2.160228,-56.43613 10.261083,-81.54875 0,0 7.830836,-36.45388 23.76255,-62.91669 l 21.60231,-34.83375 c 0,0 3.95668,-14.08693 17.6826,-8.89108 0,0 15.80095,4.03057 40.91362,4.03057 l 150.13603,-3.24034 c 0,0 10.80112,-0.54004 29.97319,-7.56084 0,0 13.23141,-3.78032 29.16307,-3.78032 l 66.15712,-2.97041 c 0,0 5.13058,2.16028 20.79222,-8.37087 l 16.20173,-13.77143 c 0,0 8.91095,-12.42136 7.0207,-17.28186 0,0 0.54011,-7.02076 -1.62016,-12.6913 L 486.7679,237.48687 c 0,0 -4.59046,-8.58368 -3.32702,-18.06329 0,0 0.0286,-7.49268 3.0477,-10.26113 l 91.54908,-86.70778 c 0,0 11.34113,-10.5312 17.28181,-10.5312 0,0 9.72107,-2.43024 8.91096,9.18102 0,0 -9.03642,36.26914 -7.44661,50.31069 3.01862,18.00978 24.45847,29.34785 24.45847,29.34785 0,0 12.66241,0.0751 12.93248,-9.64604 L 628.533,162.68893 c 0,0 -2.97035,-14.31156 14.04152,-14.85161 l 27.54291,-1.08011 c 0,0 11.61125,-1.62018 9.18097,13.77145 l -7.8308,33.48362 c 0,0 -19.98218,68.5873 -62.1067,115.57232 0,0 -56.436,45.63482 -106.9313,56.70601 0,0 -16.74181,5.94065 -56.9761,7.29083 l -95.60148,2.28527 c 0,0 -3.99938,4.88321 -3.76914,9.596 l -0.95507,9.10984 c 0,0 -8.42192,0.90105 -11.71642,0.98637 h -22.72214 l -9.7012,-5.23574 c 0,0 -9.18095,-8.10088 -19.17204,-5.94062 l -60.21642,0.27005 -41.31439,1.62013 c 0,0 -18.63197,-0.81003 -25.65275,16.20172 0,0 -10.92622,21.23008 -20.20942,75.06473 l 6.04559,6.2508 c 0,0 3.28313,1.93298 3.88292,9.69857 l 1.16623,58.59284 c 0,0 -0.0663,8.62998 -12.48768,24.83173 0,0 -8.65732,11.03804 -2.98681,33.18043 0,0 8.65742,26.22586 32.42001,44.31781 0,0 17.55184,16.20172 29.16311,20.52217 0,0 14.31152,5.40061 12.42138,18.90201 0,0 0,9.99108 -13.77154,9.451 l -73.92825,-8.10084 c 0,0 -13.54117,0.25019 -9.49072,-12.98124 0,0 8.20606,-16.09087 -2.35069,-28.23368 z"
       style="opacity:1;fill:none;fill-rule:evenodd;stroke:#c5c5c5;stroke-width:25;stroke-linecap:butt;stroke-linejoin:miter;stroke-miterlimit:4;stroke-dasharray:none;stroke-opacity:1" />
    <g
       id="g12355"
       transform="matrix(-1.7223566,-2.045526,2.045526,-1.7223566,659.29553,1883.7891)"
       style="display:inline;opacity:1">
      <rect
         id="rect9376"
         style="fill:#000000;fill-opacity:1;fill-rule:nonzero;stroke:none;stroke-width:1.3;stroke-miterlimit:4;stroke-dasharray:none;stroke-opacity:1"
         transform="rotate(40.092875)"
         y="-225.66817"
         x="503.13138"
         height="3.794178"
         width="3.6360872" />
      <rect
         id="rect10351"
         style="fill:#ffffff;fill-opacity:1;fill-rule:nonzero;stroke:none;stroke-width:1.3;stroke-miterlimit:4;stroke-dasharray:none;stroke-opacity:1"
         transform="rotate(40.092875)"
         y="-221.97508"
         x="503.10162"
         height="3.794178"
         width="3.6360872" />
      <rect
         id="rect12295"
         style="fill:#ffffff;fill-opacity:1;fill-rule:nonzero;stroke:none;stroke-width:1.3;stroke-miterlimit:4;stroke-dasharray:none;stroke-opacity:1"
         transform="rotate(40.092875)"
         y="-214.46121"
         x="503.1427"
         height="3.794178"
         width="3.6360872" />
      <rect
         id="rect12303"
         style="fill:#000000;fill-opacity:1;fill-rule:nonzero;stroke:none;stroke-width:1.3;stroke-miterlimit:4;stroke-dasharray:none;stroke-opacity:1"
         transform="rotate(40.092875)"
         y="-218.21779"
         x="503.12387"
         height="3.794178"
         width="3.6360872" />
      <rect
         id="rect12321"
         style="fill:#000000;fill-opacity:1;fill-rule:nonzero;stroke:none;stroke-width:1.3;stroke-miterlimit:4;stroke-dasharray:none;stroke-opacity:1"
         transform="rotate(40.092875)"
         y="-221.93484"
         x="506.6814"
         height="3.794178"
         width="3.6360872" />
      <rect
         id="rect12327"
         style="fill:#ffffff;fill-opacity:1;fill-rule:nonzero;stroke:none;stroke-width:1.3;stroke-miterlimit:4;stroke-dasharray:none;stroke-opacity:1"
         transform="rotate(40.092875)"
         y="-218.24176"
         x="506.65164"
         height="3.794178"
         width="3.6360872" />
      <rect
         id="rect12329"
         style="fill:#ffffff;fill-opacity:1;fill-rule:nonzero;stroke:none;stroke-width:1.3;stroke-miterlimit:4;stroke-dasharray:none;stroke-opacity:1"
         transform="rotate(40.092875)"
         y="-225.6622"
         x="506.69482"
         height="3.794178"
         width="3.6360872" />
      <rect
         id="rect12335"
         style="fill:#000000;fill-opacity:1;fill-rule:nonzero;stroke:none;stroke-width:1.3;stroke-miterlimit:4;stroke-dasharray:none;stroke-opacity:1"
         transform="rotate(40.092875)"
         y="-214.48447"
         x="506.67389"
         height="3.794178"
         width="3.6360872" />
      <rect
         id="rect12337"
         style="fill:#000000;fill-opacity:1;fill-rule:nonzero;stroke:none;stroke-width:1.3;stroke-miterlimit:4;stroke-dasharray:none;stroke-opacity:1"
         transform="rotate(40.092875)"
         y="-225.71014"
         x="510.23587"
         height="3.794178"
         width="3.6360872" />
      <rect
         id="rect12343"
         style="fill:#ffffff;fill-opacity:1;fill-rule:nonzero;stroke:none;stroke-width:1.3;stroke-miterlimit:4;stroke-dasharray:none;stroke-opacity:1"
         transform="rotate(40.092875)"
         y="-222.01706"
         x="510.20612"
         height="3.794178"
         width="3.6360872" />
      <rect
         id="rect12347"
         style="fill:#ffffff;fill-opacity:1;fill-rule:nonzero;stroke:none;stroke-width:1.3;stroke-miterlimit:4;stroke-dasharray:none;stroke-opacity:1"
         transform="rotate(40.092875)"
         y="-214.50319"
         x="510.24719"
         height="3.794178"
         width="3.6360872" />
      <rect
         id="rect12351"
         style="fill:#000000;fill-opacity:1;fill-rule:nonzero;stroke:none;stroke-width:1.3;stroke-miterlimit:4;stroke-dasharray:none;stroke-opacity:1"
         transform="rotate(40.092875)"
         y="-218.25977"
         x="510.22836"
         height="3.794178"
         width="3.6360872" />
    </g>
  </g>
</svg>
